<svg width="62" height="62" viewBox="0 0 62 62" fill="none" xmlns="http://www.w3.org/2000/svg">
<mask id="mask0_4317_1430" style="mask-type:luminance" maskUnits="userSpaceOnUse" x="0" y="0" width="62" height="62">
<path d="M31 62C48.1208 62 62 48.1208 62 31C62 13.8792 48.1208 0 31 0C13.8792 0 0 13.8792 0 31C0 48.1208 13.8792 62 31 62Z" fill="white"/>
</mask>
<g mask="url(#mask0_4317_1430)">
<path d="M38.2107 37.5936L37.2146 40.6617C37.2146 40.6617 33.0109 44.4072 32.8913 44.4471C32.7718 44.4869 26.7551 43.929 26.7551 43.929C26.7551 43.929 23.6471 41.3988 23.6471 41.2395C23.6471 41.0801 22.2924 37.5338 22.2924 37.5338L23.1291 34.3262L29.9427 32.2742L36.9556 33.0113L38.39 35.6013L38.2107 37.6135V37.5936Z" fill="#E1956B"/>
<path d="M5.91528 52.6328C7.60873 50.6804 12.3504 41.5158 12.1312 38.6668C11.9121 35.8179 14.4024 28.048 14.4024 28.048L17.2116 23.8243L21.1164 22.9875L24.1447 34.9214L24.2842 44.5441L35.5406 43.6077L38.1306 32.2915L39.565 25.5377L44.745 25.3185L46.5978 32.2915L47.6537 39.6431L53.4712 50.6804L55.324 53.2106L41.9558 48.2896L31.8748 53.4098L23.308 53.5692L5.93521 52.6527L5.91528 52.6328Z" fill="#D6D7DA"/>
<path d="M39.0872 50.6032C38.2106 51.4599 37.1148 51.8982 36.039 52.3763C34.3057 53.1533 32.4728 53.5916 30.5801 53.6514C27.3128 53.751 24.4837 52.6353 22.0133 50.5036C21.9336 50.4438 20.8577 49.5274 20.798 49.4277C21.555 47.4952 22.0531 45.8217 22.1727 43.8095C22.2523 43.3313 22.1727 42.893 22.2324 42.3352C22.5113 42.5544 23.4876 43.3314 23.7665 43.5505C24.7228 44.3076 25.44 45.3635 26.5557 45.9014C28.5081 46.8577 30.6 46.9374 32.6919 46.6385C34.1463 46.4194 35.3815 45.7221 36.2781 44.5466C36.6566 44.0486 37.573 42.9727 38.0711 42.6141C38.1508 42.913 38.1907 46.0807 38.3102 47.0768C38.4496 48.2523 38.4297 49.5672 39.0872 50.5833V50.6032Z" fill="#E2966D"/>
<path d="M16.8528 32.5925C16.534 31.696 16.5539 29.365 16.5938 27.5321C16.5938 27.1336 17.0719 27.1535 17.311 26.775C17.9286 27.3727 18.088 28.2891 18.7455 28.9466C18.8052 28.0899 18.8849 27.3129 18.9048 26.5359C18.9646 24.5038 19.3232 22.5115 19.4627 20.4993C21.2557 19.4035 23.2679 18.8855 25.2602 18.3676C26.1966 18.1285 27.0533 18.7062 27.9498 18.9054C30.3206 19.4234 32.6516 20.1008 35.1221 19.9215C35.5803 19.8817 35.9787 19.7422 36.3174 19.5031C37.2737 18.8258 38.2898 18.9852 39.266 19.3238C39.7242 19.4832 40.2622 19.6227 40.6208 20.0411C40.6606 20.2801 40.6407 20.5192 40.7204 20.7383C41.2384 22.3919 41.4974 24.0655 41.5173 25.7988C41.5372 27.1535 41.3579 28.5083 41.338 29.863C41.2384 30.0423 41.2384 30.2416 41.2384 30.4607C41.079 30.5603 41.0989 30.7197 41.0989 30.8791C40.7802 32.5726 40.4016 34.2461 40.1426 35.9395C39.9036 37.5533 38.8875 38.5494 37.5925 39.4659C37.5925 38.928 37.5527 38.4697 37.5925 38.0314C37.6523 37.5334 37.4132 37.2146 37.0147 36.9755C36.0584 36.3978 35.1221 35.8001 34.1658 35.2422C33.4485 34.8239 32.7712 34.3258 31.8547 34.6047C31.0777 34.8438 30.2808 34.784 29.5038 34.6047C28.6471 34.4055 27.9498 34.5649 27.2326 35.0828C26.2763 35.7802 25.2602 36.3778 24.2641 37.0154C23.9254 37.2345 23.7461 37.5334 23.766 37.9717C23.766 38.4697 23.7262 38.9678 23.6863 39.4858C23.6664 39.7647 23.5469 39.8843 23.2679 39.685C22.3714 39.0276 21.4151 38.4299 20.6381 37.613C20.4987 37.4537 20.3592 37.2943 20.2994 37.0751C19.7416 34.8637 19.3431 32.6522 19.0044 30.401C18.9646 30.122 18.8451 29.9228 18.5462 29.6638V34.3059C17.9087 34.2859 17.1516 33.5089 16.8528 32.6124V32.5925ZM23.0089 25.4601C24.543 25.4601 25.7583 25.739 26.9935 25.8785C27.8502 25.9781 28.2487 25.6394 28.2487 25.0018C28.2487 24.0057 27.9498 23.667 27.0134 23.687C25.6985 23.687 24.4035 23.7467 23.0886 23.5475C21.3753 23.2686 20.4787 23.9061 20.1002 25.3605C20.0604 25.5199 19.9807 25.6992 20.1201 25.8386C20.2397 25.9382 20.3791 25.8386 20.5186 25.8187C21.435 25.5995 22.3515 25.4999 22.989 25.48L23.0089 25.4601ZM35.2217 23.687C34.7236 23.687 34.2056 23.687 33.7075 23.687C33.0501 23.687 32.7911 24.0655 32.7512 24.9222C32.7114 25.5796 33.0899 25.8386 33.6478 25.8984C34.0064 25.9382 34.365 25.8984 34.7236 25.8187C36.6362 25.4003 38.5488 25.3007 40.4614 25.8187C40.8399 25.9183 40.9395 25.8586 40.8598 25.4003C40.561 23.667 39.3258 23.2885 37.6523 23.5475C36.8354 23.6869 36.0385 23.7069 35.2217 23.667V23.687Z" fill="#E1956B"/>
<path d="M43.4313 32.0747C43.2719 32.9911 42.7738 33.6884 42.3355 34.047C42.0964 34.2463 41.8374 34.306 41.5585 34.2861C41.5386 32.7919 41.4987 31.3176 41.4788 29.8234C41.4788 29.5445 41.419 29.2058 41.5386 28.9866C42.0366 28.0104 42.455 26.9943 43.0527 26.0779C43.4313 26.815 43.2121 27.612 43.3316 28.3889C43.5508 29.9031 43.5906 31.1582 43.4313 32.0747Z" fill="#E1956B"/>
<path d="M19.4642 20.4797C19.3446 22.4919 18.9661 24.5041 18.9063 26.5163C18.9063 27.2933 18.8067 28.0703 18.7469 28.9269C18.0696 28.2496 17.9301 27.353 17.3125 26.7554C17.0734 25.5401 17.0734 24.3248 17.1133 23.1095C17.1531 22.0735 18.0297 21.5156 18.7469 20.898C18.9462 20.7187 19.2251 20.5992 19.4642 20.4597V20.4797Z" fill="#341D11"/>
<path d="M43.0508 26.0755C42.4531 26.992 42.0347 28.008 41.5367 28.9842C41.4171 29.2233 41.4968 29.5421 41.4769 29.821C41.4371 29.821 41.3972 29.821 41.3574 29.821C41.3574 28.4663 41.5566 27.1115 41.5367 25.7567C41.5167 24.0234 41.2577 22.3499 40.7397 20.6963C40.6601 20.4772 40.68 20.2381 40.6401 19.999C41.6761 20.5768 42.4332 21.3737 42.6324 22.589C42.8317 23.7445 43.1106 24.8801 43.0707 26.0556L43.0508 26.0755Z" fill="#341D11"/>
<path d="M22.9908 25.4617C22.3334 25.4816 21.4169 25.5813 20.5204 25.8004C20.3809 25.8403 20.2414 25.9399 20.1219 25.8203C19.9824 25.6809 20.0621 25.5016 20.102 25.3422C20.4805 23.8878 21.3771 23.2702 23.0904 23.5292C24.4053 23.7484 25.7202 23.6886 27.0152 23.6686C27.9516 23.6686 28.2504 23.9874 28.2504 24.9836C28.2504 25.6211 27.8321 25.9598 26.9953 25.8602C25.7601 25.7207 24.5448 25.4418 23.0107 25.4418L22.9908 25.4617Z" fill="#341D11"/>
<path d="M35.2216 23.687C36.0384 23.7268 36.8354 23.687 37.6522 23.5674C39.3058 23.2885 40.5609 23.687 40.8598 25.4203C40.9395 25.8785 40.8399 25.9383 40.4613 25.8387C38.5487 25.3007 36.6361 25.4004 34.7235 25.8387C34.3848 25.9183 34.0063 25.9582 33.6477 25.9183C33.1098 25.8586 32.7113 25.5996 32.7512 24.9421C32.8109 24.1053 33.0699 23.7268 33.7075 23.7069C34.2055 23.7069 34.7036 23.7069 35.2216 23.7069V23.687Z" fill="#341D11"/>
<path d="M28.8888 32.6337C29.5064 32.6337 30.124 32.6337 30.7416 32.6337C31.2995 32.6337 31.5386 32.4544 31.4389 31.7969C31.2198 30.3824 31.1401 28.928 30.7416 27.5334C31.419 28.2706 31.7577 29.1871 31.937 30.1035C32.0765 30.9204 32.196 31.7571 32.1362 32.5939C32.1163 33.0919 31.8772 33.2912 31.4389 33.3509C30.5225 33.4705 29.6658 33.2314 28.8689 32.8329C28.8689 32.7732 28.8689 32.6935 28.8888 32.6337Z" fill="#C87359"/>
<path d="M27.3144 28.2474C25.8799 26.2352 22.9911 26.6934 21.736 27.6497C21.736 27.6497 22.3735 29.3431 24.1865 29.6221C25.0232 29.7416 25.7405 29.5424 26.2585 29.2834C26.8561 29.0443 27.1151 28.7255 27.2546 28.606L27.2745 28.5861C27.4339 28.4466 27.3144 28.2474 27.3144 28.2474Z" fill="#F1F1F5"/>
<path d="M24.8057 29.5451C25.719 29.5451 26.4593 28.9207 26.4593 28.1505C26.4593 27.3802 25.719 26.7559 24.8057 26.7559C23.8924 26.7559 23.1521 27.3802 23.1521 28.1505C23.1521 28.9207 23.8924 29.5451 24.8057 29.5451Z" fill="#413121"/>
<path d="M26.1592 27.868C26.1592 28.5454 25.5814 29.0833 24.8841 29.0833C24.1868 29.0833 23.609 28.5454 23.609 27.868C23.609 27.868 23.609 27.868 23.609 27.8481C23.4895 27.5492 23.3899 28.1469 23.3899 28.1469C23.3899 28.8243 24.0274 29.3622 24.8243 29.3622C25.6213 29.3622 26.2588 28.8243 26.2588 28.1469C26.2588 28.1469 26.199 27.7285 26.1392 27.868H26.1592Z" fill="#615348"/>
<path d="M24.9851 28.807C25.5243 28.807 25.9614 28.4413 25.9614 27.9902C25.9614 27.539 25.5243 27.1733 24.9851 27.1733C24.446 27.1733 24.0089 27.539 24.0089 27.9902C24.0089 28.4413 24.446 28.807 24.9851 28.807Z" fill="#020202"/>
<path d="M25.1257 27.8137C25.2358 27.8137 25.325 27.6888 25.325 27.5348C25.325 27.3807 25.2358 27.2559 25.1257 27.2559C25.0157 27.2559 24.9265 27.3807 24.9265 27.5348C24.9265 27.6888 25.0157 27.8137 25.1257 27.8137Z" fill="#D4D3D0"/>
<path d="M27.3144 28.2498C26.0791 25.6797 22.9712 26.3173 21.736 27.6521C22.9712 26.6958 25.8799 26.2575 27.3144 28.2498Z" fill="#694F36"/>
<path d="M33.9826 28.2474C35.4171 26.2352 38.3258 26.6934 39.561 27.6497C39.561 27.6497 38.9235 29.3431 37.1105 29.6221C36.2737 29.7416 35.5565 29.5424 35.0385 29.2834C34.4408 29.0443 34.1818 28.7255 34.0424 28.606L34.0225 28.5861C33.8631 28.4466 33.9826 28.2474 33.9826 28.2474Z" fill="#F1F1F5"/>
<path d="M36.4922 29.5451C37.4055 29.5451 38.1458 28.9207 38.1458 28.1505C38.1458 27.3802 37.4055 26.7559 36.4922 26.7559C35.579 26.7559 34.8386 27.3802 34.8386 28.1505C34.8386 28.9207 35.579 29.5451 36.4922 29.5451Z" fill="#413121"/>
<path d="M35.1362 27.868C35.1362 28.5454 35.714 29.0833 36.4113 29.0833C37.1086 29.0833 37.6864 28.5454 37.6864 27.868C37.6864 27.868 37.6864 27.868 37.6864 27.8481C37.8059 27.5492 37.9055 28.1469 37.9055 28.1469C37.9055 28.8243 37.268 29.3622 36.4711 29.3622C35.6742 29.3622 35.0366 28.8243 35.0366 28.1469C35.0366 28.1469 35.0964 27.7285 35.1562 27.868H35.1362Z" fill="#615348"/>
<path d="M36.3131 28.807C36.8523 28.807 37.2894 28.4413 37.2894 27.9902C37.2894 27.539 36.8523 27.1733 36.3131 27.1733C35.774 27.1733 35.3369 27.539 35.3369 27.9902C35.3369 28.4413 35.774 28.807 36.3131 28.807Z" fill="#020202"/>
<path d="M36.1743 27.8137C36.2844 27.8137 36.3736 27.6888 36.3736 27.5348C36.3736 27.3807 36.2844 27.2559 36.1743 27.2559C36.0643 27.2559 35.9751 27.3807 35.9751 27.5348C35.9751 27.6888 36.0643 27.8137 36.1743 27.8137Z" fill="#D4D3D0"/>
<path d="M33.9825 28.2498C35.2178 25.6797 38.3257 26.3173 39.5609 27.6521C38.3257 26.6958 35.417 26.2575 33.9825 28.2498Z" fill="#694F36"/>
<path d="M-1.9574 67.8527C-1.9574 67.8527 -1.57886 59.3257 2.38579 55.5403C6.35044 51.7351 14.3594 47.5313 21.9501 45.6387C21.9501 45.6387 22.5876 52.9305 29.9591 52.9305C37.3305 52.9305 38.2071 45.6387 38.2071 45.6387C38.2071 45.6387 62.8517 50.5995 63.9674 67.8726H-1.9574V67.8527Z" fill="#F0F0F3"/>
<path d="M63.9874 67.8746H-1.97729C-1.97729 67.8746 -1.87768 65.6831 -1.28 63.113C-0.742078 60.7422 0.333758 57.4749 2.38581 55.5224C4.33826 53.6497 7.32669 51.6374 10.8132 49.8444C14.4392 47.9916 18.3042 46.5173 21.97 45.6008H21.9899V45.6207C21.9899 45.6207 22.1692 47.4537 23.2251 49.2666C23.8428 50.3225 24.6596 51.1593 25.6159 51.757C26.8312 52.5141 28.2856 52.8926 29.9591 52.8926C31.6326 52.8926 33.1069 52.5141 34.3421 51.757C35.3183 51.1593 36.1551 50.3225 36.8126 49.2666C37.9282 47.4736 38.1673 45.6407 38.1673 45.6407L38.1872 45.6207C38.247 45.6207 44.4231 46.8958 50.659 50.2628C54.3248 52.2351 57.2733 54.5462 59.4649 57.0963C62.1943 60.3039 63.7084 63.9299 63.9674 67.8746H63.9874ZM-1.93745 67.8347H63.9276C63.6686 63.9099 62.1545 60.3039 59.4449 57.1163C57.2733 54.5661 54.3048 52.2551 50.659 50.2827C44.6422 47.0353 38.6654 45.7403 38.2271 45.6606C38.1872 45.8997 37.9282 47.5931 36.8723 49.2865C36.2149 50.3425 35.3781 51.1992 34.382 51.7968C33.1467 52.5539 31.6525 52.9324 29.979 52.9324C28.3055 52.9324 26.8312 52.5539 25.6159 51.7968C24.6397 51.1992 23.8228 50.3425 23.2052 49.2865C22.2091 47.5931 21.9899 45.8997 21.97 45.6606C18.3042 46.577 14.479 48.0314 10.853 49.8842C7.38646 51.6574 4.39803 53.6696 2.44558 55.5423C0.393528 57.4948 -0.662386 60.7422 -1.2003 63.113C-1.75814 65.5436 -1.87768 67.5758 -1.87768 67.8148L-1.93745 67.8347Z" fill="#BCBCBC"/>
<path d="M27.8687 52.6938C27.9284 55.6025 27.789 66.2214 29.582 67.8551H31.0165C32.3314 65.5839 32.3314 55.6025 32.3314 52.634C32.3314 52.634 30.359 53.2118 27.8687 52.6938Z" fill="white"/>
<path d="M31.0165 67.877H29.5621C27.9484 66.4027 27.8886 57.9754 27.8488 53.931C27.8488 53.4529 27.8488 53.0146 27.8488 52.6958V52.656H27.8687C30.3192 53.174 32.2916 52.6161 32.3115 52.5962H32.3513V52.6759C32.3513 55.8636 32.3513 65.5859 31.0364 67.8372L31.0165 67.877ZM29.582 67.8372H30.9766C31.8333 66.323 32.2716 61.2427 32.2716 52.7157C32.0126 52.7556 30.1399 53.2138 27.8687 52.7357C27.8687 53.0544 27.8687 53.4728 27.8687 53.931C27.9085 57.9754 27.9683 66.3629 29.5621 67.8372H29.582Z" fill="#BCBCBC"/>
<path d="M54.6256 52.2773C50.4019 48.8904 45.6005 36.7973 45.481 31.9361C45.4212 29.7246 44.5247 28.8679 43.5285 27.812C42.5324 26.7561 40.6796 23.9072 40.4604 22.7915C40.2413 21.6758 39.4643 18.9264 36.4958 20.1019C35.2207 20.6 33.328 21.8949 30.479 21.8949C27.6301 21.8949 24.9803 20.5203 23.4463 20.2015C21.9122 19.8827 20.9559 20.1019 20.1191 21.6758C19.2824 23.2497 18.6847 25.3814 17.1706 27.812C15.6365 30.2426 12.6281 35.1636 12.15 38.6501C12.15 38.6501 11.7914 32.5138 12.2496 28.1906C12.9868 21.2773 17.5491 9.98105 24.1436 5.95663C28.6262 3.20727 35.7188 4.74136 38.249 6.91295C40.7792 9.08455 42.5324 12.0331 44.0664 13.9856C45.6005 15.938 48.1307 19.803 48.3499 26.4971C48.4495 29.4656 47.2143 30.7606 47.6725 36.8969C47.9315 40.4431 52.972 49.6674 54.6654 52.2574L54.6256 52.2773Z" fill="white"/>
<path d="M54.7273 52.3943L54.6078 52.2947C50.2646 48.8282 45.5628 36.5955 45.4433 31.9336C45.3835 29.8217 44.5667 28.965 43.6303 27.9689L43.5107 27.8294C42.5345 26.8134 40.6618 23.9445 40.4426 22.789C40.3032 22.0319 39.9047 20.6572 38.8687 20.0994C38.2312 19.7407 37.4343 19.7607 36.4979 20.0994C36.219 20.2189 35.9201 20.3583 35.5615 20.5177C34.3462 21.0955 32.6926 21.8924 30.4612 21.8924C28.5088 21.8924 26.6759 21.2549 25.2016 20.7369C24.5242 20.4978 23.9265 20.2986 23.4484 20.199C21.9741 19.9001 21.0178 20.0396 20.1412 21.6733C19.8224 22.2709 19.5435 22.9284 19.2447 23.6456C18.7267 24.8808 18.1489 26.2754 17.1727 27.7896C15.2402 30.8577 12.6103 35.3403 12.1521 38.6077H12.1123C12.1123 38.6077 11.7537 32.4117 12.2119 28.1482C12.6103 24.5023 14.0049 19.94 15.9773 15.9355C18.906 9.95862 22.0139 7.1694 24.1258 5.89433C28.5287 3.20474 35.6213 4.59937 38.2511 6.85065C40.1039 8.42456 41.5184 10.4168 42.7537 12.1501C43.2119 12.7876 43.6502 13.3853 44.0487 13.9233C46.7781 17.4098 48.1727 21.494 48.3321 26.4548C48.3719 27.6103 48.2125 28.5068 48.0133 29.5428C47.7145 31.1366 47.3559 33.109 47.6348 36.8545C47.8739 40.0222 52.4362 48.868 54.03 51.2587C54.2093 51.5377 54.4484 51.9361 54.6277 52.1951L54.7074 52.3146L54.7273 52.3943ZM37.8128 19.8204C38.2113 19.8204 38.5699 19.9001 38.8886 20.0794C39.9246 20.6572 40.3231 22.0319 40.4825 22.8089C40.7016 23.9445 42.5744 26.7934 43.5307 27.8095L43.6502 27.949C44.6065 28.9451 45.4233 29.8217 45.4831 31.9535C45.6026 36.5556 50.2646 48.6887 54.5082 52.1752C54.3687 51.9561 54.1695 51.5974 54.0101 51.3584C52.4362 48.9477 47.8539 40.1019 47.6148 36.9143C47.3359 33.1488 47.6945 31.1765 47.9934 29.5826C48.1727 28.5466 48.352 27.6501 48.3122 26.4946C48.1528 21.5537 46.7582 17.4496 44.0287 13.983C43.6104 13.4451 43.172 12.8474 42.7337 12.2099C41.4786 10.4567 40.084 8.48433 38.2312 6.91042C35.6014 4.65913 28.5287 3.28443 24.1457 5.9541C22.0538 7.22916 18.9458 9.99844 16.0172 15.9753C14.0647 19.9599 12.6502 24.5222 12.2717 28.1681C11.8732 31.9535 12.0924 37.2131 12.1521 38.3885C12.69 35.1212 15.2402 30.7979 17.1328 27.7896C18.0891 26.2754 18.6669 24.8808 19.1849 23.6456C19.4837 22.9284 19.7627 22.251 20.0814 21.6733C20.958 20.0197 21.9741 19.8802 23.4285 20.179C23.9066 20.2786 24.5043 20.4779 25.2016 20.717C26.6759 21.235 28.5088 21.8725 30.4612 21.8725C32.6727 21.8725 34.3263 21.0756 35.5217 20.4978C35.8803 20.3185 36.1791 20.1791 36.458 20.0794C36.9362 19.9001 37.3745 19.8005 37.7929 19.8005L37.8128 19.8204Z" fill="#BCBCBC"/>
<path d="M38.5894 7.17057C40.3427 6.9315 42.4346 8.20656 43.092 9.7207C44.6858 13.4064 43.8491 16.1957 40.1833 17.9289C38.1511 18.9052 35.8401 19.5228 33.5888 19.7818C29.3651 20.2599 25.1415 19.8415 21.0971 18.4668C19.842 18.0485 18.6466 17.3313 17.6106 16.4945C16.4352 15.5581 16.3953 14.4624 16.993 13.0279C17.0927 12.8088 16.993 12.5099 16.9333 12.2509C16.236 9.46171 19.1049 6.61273 22.2328 7.29011C21.7347 7.8081 21.3163 8.2265 20.878 8.64488C18.8259 10.6172 19.065 12.0119 21.8542 12.7291C24.225 13.3268 26.7154 13.6854 29.146 13.7451C31.7957 13.8049 34.4455 13.4264 37.0952 13.1873C37.5933 13.1474 38.0914 12.9084 38.5496 12.7091C40.3626 11.8724 40.7013 10.8165 39.725 9.08318C39.3664 8.44565 38.9879 7.84796 38.5695 7.15066L38.5894 7.17057Z" fill="black"/>
<path d="M30.661 16.9723C26.5569 16.9723 23.15 16.4543 20.5601 15.4184C18.2291 14.482 17.3326 13.446 17.0138 13.0276C17.0138 13.0276 17.0138 12.9679 17.0337 12.9081C17.0536 12.8483 17.0337 12.7487 17.0337 12.7487C17.5119 13.4062 20.5202 16.7134 30.641 16.7134C36.0003 16.7134 40.3833 15.1992 42.3756 12.669C43.0331 11.8323 43.3319 10.7564 43.2522 10.1189C43.2522 10.1189 43.4116 10.5174 43.4515 10.6767C43.4515 11.3143 43.1526 12.0913 42.5749 12.8284C40.5427 15.4184 36.08 16.9524 30.661 16.9524V16.9723Z" fill="#3F3F3F"/>
<path d="M41.4175 28.7097L40.9991 31.4192L41.2781 31.1802L41.3976 30.3434L41.4175 28.7097Z" fill="#341D11"/>
<path d="M18.2693 33.5882C18.4087 32.1936 18.4685 30.779 18.4884 29.3645C18.4884 29.0856 18.5283 28.8067 18.5482 28.5477L18.7873 28.5078C19.1658 29.8626 19.1658 31.297 19.4647 32.6916C19.7436 34.0264 19.903 35.3812 20.3413 36.6762C20.5007 37.1742 20.8593 37.4731 21.2378 37.7919C21.8753 38.3099 22.4929 38.8876 23.3297 39.306C23.3297 38.2501 23.3297 37.2739 23.3297 36.2977C23.3297 34.8234 23.3297 34.8234 24.7044 34.5245C25.6208 34.3253 26.5572 34.146 27.4537 33.887C28.2108 33.6878 28.948 33.7674 29.6851 33.887C30.3824 34.0065 31.0797 34.0663 31.777 33.8471C32.7134 33.5483 33.6298 33.8472 34.4865 34.0862C35.3034 34.3054 36.1401 34.4448 36.957 34.6839C37.5148 34.8433 37.714 35.1222 37.7339 35.68C37.7738 36.716 37.8136 37.752 37.6941 39.047C38.6902 38.0309 39.7462 37.4333 40.0251 35.9988C40.4435 33.8073 40.9017 31.5162 41.3201 29.3247C41.4396 29.4243 41.2603 29.5039 41.4794 29.484C41.4794 30.7591 41.6587 32.2931 41.6787 33.5682C41.6787 34.5444 41.5791 35.5207 41.6986 36.477C41.9177 38.1306 41.1806 39.2861 40.1247 40.3619C39.268 41.2186 38.3715 42.0753 37.714 43.1312C37.2558 43.43 36.8374 43.7887 36.5386 44.227C35.4827 45.761 34.0283 46.558 32.295 46.7572C30.3226 46.9763 28.3503 46.8767 26.5174 45.9204C25.3818 45.3227 24.6645 44.207 23.6883 43.4101C23.4094 43.171 23.1305 42.9519 22.8516 42.7327C21.7159 41.7765 20.5007 40.9198 19.5643 39.7244C18.9068 38.8677 18.4685 37.9712 18.4685 36.8356C18.4685 35.7398 18.349 34.664 18.2892 33.5682L18.2693 33.5882ZM24.4255 35.7597C24.4255 35.7597 24.4255 35.8394 24.4653 35.8793C24.4653 36.0387 24.4653 36.1781 24.4653 36.3375C24.5052 36.4371 24.545 36.5566 24.6048 36.6563C24.7841 37.9712 25.1427 39.2263 25.4415 40.5014C25.5411 40.8999 25.7204 41.1389 25.9994 41.3182C26.7963 41.8163 27.653 42.1151 28.5694 42.2944C29.3863 42.4538 29.3863 42.3741 29.2667 41.5175C29.0077 39.824 28.7288 40.083 30.3824 40.0431C30.6016 40.0431 30.8207 40.0431 31.0399 40.0431C32.0227 40.0431 32.4411 40.5611 32.295 41.5971C32.295 41.5971 32.295 41.6569 32.295 41.6768C32.1356 42.2148 32.3348 42.414 32.8329 42.2546C33.4306 42.0554 34.0681 41.9358 34.6061 41.637C35.2037 41.2983 35.8612 40.9795 35.9807 40.1029C36.1401 38.8478 36.3593 37.5926 36.5386 36.3375C36.6183 36.1582 36.3593 35.9191 36.6183 35.7398C36.678 35.5008 36.5585 35.441 36.3593 35.4211C34.8451 35.2816 33.331 35.1023 31.7969 34.9827C29.3464 34.8034 26.9158 35.2019 24.4852 35.4609C24.4055 35.4808 24.2661 35.5007 24.2661 35.5406C24.2262 35.68 24.3258 35.7398 24.4454 35.7597H24.4255Z" fill="#26101B"/>
<path d="M36.2971 36.5192C35.4205 37.2165 34.5239 37.9138 33.6673 38.631C32.4121 39.667 30.9378 39.5474 29.4835 39.3881C27.7701 39.2088 26.5946 38.0134 25.2797 37.0969C25.1203 36.9973 24.9809 36.8977 24.8215 36.7981C24.7816 36.6985 24.7418 36.5989 24.702 36.4993C25.0805 36.3797 25.2996 36.818 25.6583 36.7782C26.4352 37.1965 27.2322 37.6149 28.0092 38.0333C29.0451 38.5912 30.1808 38.4318 31.2765 38.4318C31.7347 38.4318 32.2727 38.5115 32.6512 38.3322C33.5278 37.9337 34.3247 37.3759 35.1615 36.8977C35.3209 36.818 35.4404 36.6586 35.4005 36.5391C35.3209 36.3399 35.1216 36.3598 34.9224 36.4196C34.3247 36.579 33.7071 36.7782 33.0895 36.8379C32.1133 36.9375 31.1769 37.2962 30.1808 37.0969C28.6865 36.7981 27.1923 36.4594 25.6583 36.3C25.4192 35.8817 25.0207 36.1407 24.702 36.0809C24.6621 36.061 24.6422 36.0211 24.6621 35.9813C24.9211 35.9813 25.1801 35.9613 25.4391 35.9414C27.5111 35.8418 29.5831 36.1606 31.655 36.0609C33.229 35.9813 34.8228 35.9613 36.3967 35.9613C36.1576 36.1207 36.3967 36.3399 36.317 36.4993L36.2971 36.5192Z" fill="#C87359"/>
<path d="M24.7023 36.1007C25.0211 36.1605 25.4195 35.9015 25.6586 36.3199C25.6586 36.4793 25.6387 36.6387 25.6188 36.7981C25.2602 36.8379 25.041 36.3996 24.6625 36.5191C24.6625 36.3797 24.6625 36.2402 24.6625 36.1007H24.7023Z" fill="#C87359"/>
<path d="M25.6388 36.796C25.6388 36.6366 25.6587 36.4773 25.6786 36.3179C27.2127 36.4573 28.7069 36.796 30.2011 37.1148C31.1973 37.314 32.1337 36.9554 33.1099 36.8558C33.7275 36.796 34.3252 36.5968 34.9428 36.4374C35.142 36.3776 35.3412 36.3577 35.4209 36.5569C35.4608 36.6765 35.3213 36.8359 35.1819 36.9156C34.3451 37.3937 33.5482 37.9516 32.6716 38.35C32.2731 38.5293 31.7551 38.4496 31.2969 38.4496C30.1812 38.4496 29.0655 38.609 28.0295 38.0512C27.2525 37.6328 26.4556 37.2144 25.6786 36.796H25.6388Z" fill="white"/>
</g>
</svg>
